<svg width="24" height="24" viewBox="0 0 24 24" fill="none" xmlns="http://www.w3.org/2000/svg">
    <circle cx="12" cy="12" r="12" fill="black"/>
    <path d="M14.9203 7.31161C15.3031 7.73661 15.589 8.16164 15.7778 8.5867C15.9667 9.01177 16.0774 9.4318 16.1101 9.8468C16.1464 10.2585 16.116 10.6628 16.0187 11.0599C15.9215 11.457 15.7782 11.84 15.5888 12.209C15.3991 12.5702 15.1747 12.9152 14.9156 13.2438C14.6524 13.5681 14.3751 13.8655 14.0836 14.136L16.842 17.1986L14.2606 19.5236C13.3569 18.5203 12.459 17.5196 11.5669 16.5217C10.6748 15.5238 9.77667 14.5155 8.87249 13.4967C8.39844 12.9556 7.91885 12.4194 7.43372 11.8882C6.94859 11.3569 6.47243 10.8097 6.00526 10.2465C6.32802 9.65421 6.68827 9.10358 7.086 8.59458C7.48373 8.08558 7.93373 7.60489 8.43599 7.15252C8.72035 6.8964 9.03037 6.66876 9.36604 6.4696C9.69776 6.26606 10.0461 6.10702 10.4112 5.99248C10.78 5.87462 11.156 5.80572 11.5394 5.78578C11.9225 5.75814 12.3058 5.79382 12.6893 5.89282C13.0728 5.99183 13.4528 6.15748 13.8292 6.38979C14.2054 6.61439 14.5691 6.92166 14.9203 7.31161ZM12.662 9.75033C12.4055 9.46554 12.1324 9.3108 11.8426 9.28612C11.5525 9.25373 11.2912 9.34231 11.0585 9.55186C10.981 9.62171 10.9076 9.70365 10.8385 9.79768C10.7691 9.884 10.7073 9.97138 10.6532 10.0598L12.3151 12.0387C12.3747 12.0009 12.4285 11.9604 12.4765 11.9172C12.5245 11.8739 12.5744 11.829 12.6261 11.7825C12.759 11.6627 12.8628 11.5217 12.9373 11.3593C13.0155 11.1937 13.0592 11.0194 13.0684 10.8365C13.0737 10.6493 13.0448 10.465 12.9818 10.2836C12.9186 10.0946 12.812 9.91682 12.662 9.75033Z" fill="white"/>
</svg>
