<svg width="18" height="18" viewBox="0 0 18 18" fill="none" xmlns="http://www.w3.org/2000/svg">
<circle cx="9" cy="9" r="9" fill="white"/>
<path d="M11.1903 5.48371C11.4773 5.80245 11.6917 6.12123 11.8334 6.44003C11.975 6.75883 12.0581 7.07385 12.0826 7.3851C12.1098 7.69385 12.087 7.99713 12.0141 8.29492C11.9411 8.59272 11.8336 8.87998 11.6916 9.15672C11.5494 9.42767 11.381 9.68639 11.1867 9.93288C10.9893 10.1761 10.7813 10.3991 10.5627 10.602L12.6315 12.8989L10.6954 14.6427C10.0177 13.8902 9.34426 13.1397 8.67518 12.3913C8.00611 11.6429 7.33251 10.8866 6.65437 10.1226C6.29883 9.71667 5.93913 9.31452 5.57529 8.91611C5.21144 8.51771 4.85433 8.10729 4.50395 7.68485C4.74602 7.24066 5.0162 6.82769 5.3145 6.44593C5.6128 6.06418 5.9503 5.70367 6.32699 5.36439C6.54026 5.1723 6.77278 5.00157 7.02453 4.8522C7.27332 4.69954 7.53461 4.58026 7.80841 4.49436C8.08497 4.40596 8.36702 4.35429 8.65456 4.33934C8.9419 4.3186 9.22938 4.34536 9.51699 4.41962C9.8046 4.49387 10.0896 4.61811 10.3719 4.79234C10.6541 4.96079 10.9268 5.19125 11.1903 5.48371ZM9.49651 7.31275C9.30414 7.09915 9.09928 6.9831 8.88194 6.96459C8.66441 6.9403 8.4684 7.00673 8.2939 7.1639C8.23573 7.21629 8.18072 7.27774 8.12885 7.34826C8.07679 7.413 8.03047 7.47853 7.98987 7.54486L9.23634 9.02906C9.28104 9.0007 9.32139 8.97031 9.3574 8.93788C9.3934 8.90545 9.4308 8.87177 9.46957 8.83685C9.56929 8.74704 9.64709 8.64126 9.70297 8.5195C9.76163 8.39525 9.79441 8.26455 9.80131 8.12739C9.80526 7.98695 9.78361 7.84873 9.73636 7.71273C9.68893 7.57094 9.60898 7.43762 9.49651 7.31275Z" fill="black"/>
</svg>
